<svg id="eye-hide-solid_1_" data-name="eye-hide-solid (1)" xmlns="http://www.w3.org/2000/svg" width="24" height="24" viewBox="0 0 24 24">
  <rect id="Rectangle_3998" data-name="Rectangle 3998" width="24" height="24" fill="rgba(0,0,0,0)"/>
  <path id="Path_37816" data-name="Path 37816" d="M17.58,11.17a4.527,4.527,0,0,0-1.58.287l5.867,5.867a4.52,4.52,0,0,0,.287-1.6A4.573,4.573,0,0,0,17.58,11.17Z" transform="translate(-5.333 -3.723)" fill="#6d7aa4"/>
  <path id="Path_37817" data-name="Path 37817" d="M27.27,14.2A12.047,12.047,0,0,0,16.723,7.53,11.213,11.213,0,0,0,13.23,8.1L14.3,9.177a9.853,9.853,0,0,1,2.42-.313,10.645,10.645,0,0,1,9.2,5.62,11.833,11.833,0,0,1-2.913,3.4l.947.947a13.287,13.287,0,0,0,3.333-4l.173-.32Z" transform="translate(-4.41 -2.51)" fill="#6d7aa4"/>
  <path id="Path_37818" data-name="Path 37818" d="M4.04,5.283,7.013,8.257a13.013,13.013,0,0,0-4.46,4.86l-.173.313.173.32A12.047,12.047,0,0,0,13.1,20.417a11.284,11.284,0,0,0,4.911-1.126l3.335,3.332,1.167-1L5.18,4.29Zm5.533,5.533a4.567,4.567,0,0,0,6.367,6.367l1.067,1.067a9.94,9.94,0,0,1-3.907.8,10.645,10.645,0,0,1-9.2-5.62,11.527,11.527,0,0,1,4.08-4.2Z" transform="translate(-0.793 -1.43)" fill="#6d7aa4"/>
</svg>
