<svg id="lock-line" xmlns="http://www.w3.org/2000/svg" width="32" height="32" viewBox="0 0 32 32">
  <rect id="Rectangle_835" data-name="Rectangle 835" width="32" height="32" fill="rgba(0,0,0,0)"/>
  <path id="Path_1670" data-name="Path 1670" d="M17.824,20.59a2.142,2.142,0,0,0-.969,4.044v2.542h1.778V24.714a2.142,2.142,0,0,0-.809-4.124Z" transform="translate(-1.744 -2.288)" fill="#576698"/>
  <path id="Path_1671" data-name="Path 1671" d="M23.889,13.6v-3.8A7.289,7.289,0,0,0,16.778,2.36,7.289,7.289,0,0,0,9.667,9.791v3.8H7V28.707a1.778,1.778,0,0,0,1.778,1.778h16a1.778,1.778,0,0,0,1.778-1.778V13.6Zm-12.444-3.8a5.511,5.511,0,0,1,5.333-5.653,5.511,5.511,0,0,1,5.333,5.653v3.8H11.444ZM8.778,28.707V15.373h16V28.707Z" transform="translate(-0.778 -0.262)" fill="#576698"/>
</svg>
