<svg id="user-line_4_" data-name="user-line (4)" xmlns="http://www.w3.org/2000/svg" width="32" height="32" viewBox="0 0 32 32">
  <rect id="Rectangle_4124" data-name="Rectangle 4124" width="32" height="32" fill="rgba(0,0,0,0)"/>
  <path id="Path_38133" data-name="Path 38133" d="M17.222,15.444A6.222,6.222,0,1,0,11,9.222,6.222,6.222,0,0,0,17.222,15.444Zm0-10.667a4.444,4.444,0,1,1-4.444,4.444A4.444,4.444,0,0,1,17.222,4.778Z" transform="translate(-1.222 -0.333)" fill="#576698"/>
  <path id="Path_38134" data-name="Path 38134" d="M27.64,23.774a15.253,15.253,0,0,0-22.16,0A1.778,1.778,0,0,0,5,24.992v4.676a1.778,1.778,0,0,0,1.778,1.778H26.333a1.778,1.778,0,0,0,1.778-1.778V24.992a1.778,1.778,0,0,0-.471-1.218Zm-1.307,5.893H6.778V24.983a13.484,13.484,0,0,1,19.556,0h0Z" transform="translate(-0.556 -2.112)" fill="#576698"/>
</svg>
