<svg xmlns="http://www.w3.org/2000/svg" xmlns:xlink="http://www.w3.org/1999/xlink" width="32" height="32" viewBox="0 0 32 32">
  <defs>
    <clipPath id="clip-Camera_1">
      <rect width="32" height="32"/>
    </clipPath>
  </defs>
  <g id="Camera_1" data-name="Camera – 1" clip-path="url(#clip-Camera_1)">
    <rect width="32" height="32" fill="#fff"/>
    <g id="Group_36234" data-name="Group 36234">
      <rect id="Rectangle_4360" data-name="Rectangle 4360" width="32" height="32" fill="none"/>
      <g id="noun_Camera_1683400" transform="translate(-6 -11)">
        <g id="Group_36144" data-name="Group 36144" transform="translate(9 16)">
          <path id="Path_41075" data-name="Path 41075" d="M12.488,990.361A3.53,3.53,0,0,1,9,986.8V975.155a3.53,3.53,0,0,1,3.488-3.559h3.379l1.11-2.821a.635.635,0,0,1,.585-.414h8.878a.635.635,0,0,1,.585.414l1.11,2.821h3.379A3.53,3.53,0,0,1,35,975.155V986.8a3.53,3.53,0,0,1-3.488,3.559H12.488Zm0-1.294H31.512a2.224,2.224,0,0,0,2.22-2.265V975.155a2.223,2.223,0,0,0-2.22-2.264h-3.8a.634.634,0,0,1-.585-.4l-1.11-2.831H17.987l-1.11,2.831a.634.634,0,0,1-.585.4h-3.8a2.223,2.223,0,0,0-2.22,2.264V986.8a2.224,2.224,0,0,0,2.22,2.265ZM22,987.126a6.148,6.148,0,1,1,6.024-6.147A6.1,6.1,0,0,1,22,987.126Zm0-1.294a4.854,4.854,0,1,0-4.756-4.853A4.8,4.8,0,0,0,22,985.832Z" transform="translate(-9 -968.361)" fill="#576698"/>
        </g>
      </g>
    </g>
  </g>
</svg>
