<svg xmlns="http://www.w3.org/2000/svg" xmlns:xlink="http://www.w3.org/1999/xlink" width="32" height="32" viewBox="0 0 32 32">
  <defs>
    <clipPath id="clip-Micro_oven">
      <rect width="32" height="32"/>
    </clipPath>
  </defs>
  <g id="Micro_oven" data-name="Micro oven" clip-path="url(#clip-Micro_oven)">
    <rect width="32" height="32" fill="#fff"/>
    <g id="Group_36226" data-name="Group 36226">
      <rect id="Rectangle_4360" data-name="Rectangle 4360" width="32" height="32" fill="none"/>
      <g id="noun_Microwave_2889540" transform="translate(0 -5)">
        <path id="Path_40955" data-name="Path 40955" d="M3.9,27.19H23.258a.48.48,0,0,0,.484-.476V14.333a.48.48,0,0,0-.484-.476H3.9a.48.48,0,0,0-.484.476V26.714A.48.48,0,0,0,3.9,27.19ZM4.387,14.81H22.774V26.238H4.387ZM30.187,11H1.813A.807.807,0,0,0,1,11.8V29.248a.807.807,0,0,0,.813.8H3.419v.476a.484.484,0,0,0,.968,0v-.476H27.613v.476a.484.484,0,0,0,.968,0v-.476h1.606a.807.807,0,0,0,.813-.8V11.8A.807.807,0,0,0,30.187,11Zm-.155,18.1H1.968V11.952H30.032Zm-3.387-11.9a1.429,1.429,0,1,0-1.452-1.429A1.44,1.44,0,0,0,26.645,17.19Zm0-1.9a.476.476,0,1,1-.484.476A.48.48,0,0,1,26.645,15.286ZM24.71,19.1a.48.48,0,0,1,.484-.476h2.9a.476.476,0,1,1,0,.952h-2.9A.48.48,0,0,1,24.71,19.1Zm0,2.857a.48.48,0,0,1,.484-.476h2.9a.476.476,0,1,1,0,.952h-2.9A.48.48,0,0,1,24.71,21.952ZM7.721,17.4l-.484.952a.485.485,0,0,1-.431.262.456.456,0,0,1-.218-.052.473.473,0,0,1-.213-.638l.484-.952a.487.487,0,0,1,.858-.068.47.47,0,0,1,0,.5Z" transform="translate(0 0)" fill="#3e5bf8"/>
      </g>
    </g>
  </g>
</svg>
