<svg xmlns="http://www.w3.org/2000/svg" xmlns:xlink="http://www.w3.org/1999/xlink" width="32" height="32" viewBox="0 0 32 32">
  <defs>
    <clipPath id="clip-Washing_machine">
      <rect width="32" height="32"/>
    </clipPath>
  </defs>
  <g id="Washing_machine" data-name="Washing machine" clip-path="url(#clip-Washing_machine)">
    <rect width="32" height="32" fill="#fff"/>
    <g id="Group_36225" data-name="Group 36225">
      <rect id="Rectangle_4360" data-name="Rectangle 4360" width="32" height="32" fill="none"/>
      <g id="noun_Washing_Machine_2829117" data-name="noun_Washing Machine_2829117" transform="translate(-51.497 -6.002)">
        <g id="Group_35723" data-name="Group 35723" transform="translate(56.497 9.002)">
          <path id="Path_40957" data-name="Path 40957" d="M76.119,9H58.875A2.33,2.33,0,0,0,56.5,11.274v19.29a2.33,2.33,0,0,0,2.378,2.272H59.8v1.8a.377.377,0,0,0,.386.368h2.644a.377.377,0,0,0,.386-.368v-1.8h8.558v1.8a.377.377,0,0,0,.386.368h2.644a.377.377,0,0,0,.386-.368v-1.8h.927A2.33,2.33,0,0,0,78.5,30.564V11.274A2.33,2.33,0,0,0,76.119,9Zm-18.85,2.272a1.574,1.574,0,0,1,1.606-1.535H76.119a1.574,1.574,0,0,1,1.606,1.535v2.695H57.269Zm5.177,22.991H60.574V32.836h1.873Zm11.974,0H72.548V32.836H74.42Zm1.7-2.166H58.875a1.574,1.574,0,0,1-1.606-1.535V14.706H77.725V30.564A1.574,1.574,0,0,1,76.119,32.1Z" transform="translate(-56.497 -9.002)" fill="#3e5bf8"/>
          <path id="Path_40958" data-name="Path 40958" d="M152.854,179.343a5.756,5.756,0,1,0,6.018,5.751A5.9,5.9,0,0,0,152.854,179.343Zm0,10.762a5.018,5.018,0,1,1,5.246-5.012A5.139,5.139,0,0,1,152.854,190.105Z" transform="translate(-141.854 -170.378)" fill="#3e5bf8"/>
          <path id="Path_40959" data-name="Path 40959" d="M183.016,211.295a4.172,4.172,0,0,0-4.259,4.069,3.914,3.914,0,0,0,.041.559s0,.01,0,.015,0,.01,0,.015c.006.036.012.072.019.108s.011.06.017.089.014.063.021.094.016.066.024.1.015.057.023.086.02.069.031.1.018.055.027.082.023.067.036.1.021.056.032.083.025.062.038.092.025.059.038.088.024.051.037.077.032.067.049.1l.026.049a4.255,4.255,0,0,0,3.014,2.16l.023,0c.054.009.107.018.162.025l.056.007.137.015.094.007.106.007c.06,0,.12,0,.18,0h.033c.062,0,.124,0,.185,0l.063,0,.136-.01.062-.005q.09-.009.18-.022l.059-.009.128-.022.073-.014.126-.028.056-.013c.058-.014.116-.03.174-.047l.048-.015.139-.045.044-.015a4.183,4.183,0,0,0,2.429-2.2l.005-.014a3.892,3.892,0,0,0,.344-1.6A4.172,4.172,0,0,0,183.016,211.295Zm0,.737a3.416,3.416,0,0,1,3.487,3.332,3.185,3.185,0,0,1-.167,1.019,3.627,3.627,0,0,1-1.431-.948,2.3,2.3,0,0,0-1.65-.838h-.025a7.115,7.115,0,0,0-3.35.669c-.128.059-.24.111-.349.152,0-.018,0-.036,0-.054A3.416,3.416,0,0,1,183.016,212.032Zm1.358,6.4h0q-.073.03-.149.056l-.025.009-.124.04-.031.01q-.068.02-.138.037l-.047.011-.109.024-.042.009-.139.024-.05.007-.121.015-.031,0c-.049,0-.1.008-.149.011l-.044,0c-.05,0-.1,0-.15,0H183q-.075,0-.149,0l-.072,0-.086-.006-.092-.01-.058-.007-.11-.016-.025,0a3.535,3.535,0,0,1-2.232-1.349l-.005-.007c-.025-.034-.05-.068-.073-.1l-.016-.024c-.021-.031-.042-.063-.062-.095l-.024-.04c-.02-.033-.04-.067-.059-.1s-.041-.073-.059-.111l-.021-.043c-.016-.033-.032-.065-.047-.1l-.02-.045c-.014-.033-.028-.066-.041-.1l-.017-.046q-.019-.051-.037-.1l-.015-.045c-.012-.036-.022-.072-.032-.109l-.012-.042,0-.018a4.472,4.472,0,0,0,.584-.237,6.339,6.339,0,0,1,3.023-.6h.015c.429,0,.674.214,1.106.624a4.412,4.412,0,0,0,1.657,1.1A3.465,3.465,0,0,1,184.374,218.433Z" transform="translate(-172.016 -200.648)" fill="#3e5bf8"/>
          <path id="Path_40960" data-name="Path 40960" d="M95.635,37.085a1.507,1.507,0,0,0-1.047.415,1.374,1.374,0,0,0-.434,1,1.483,1.483,0,1,0,1.481-1.415Zm0,2.093a.7.7,0,0,1-.709-.678.659.659,0,0,1,.208-.479.721.721,0,0,1,.5-.2.679.679,0,1,1,0,1.356Z" transform="translate(-92.078 -35.607)" fill="#3e5bf8"/>
          <path id="Path_40961" data-name="Path 40961" d="M181.955,37.085a1.416,1.416,0,1,0,1.481,1.415A1.451,1.451,0,0,0,181.955,37.085Zm0,2.093a.679.679,0,1,1,.709-.678A.695.695,0,0,1,181.955,39.178Z" transform="translate(-173.638 -35.607)" fill="#3e5bf8"/>
        </g>
      </g>
    </g>
  </g>
</svg>
