<svg xmlns="http://www.w3.org/2000/svg" xmlns:xlink="http://www.w3.org/1999/xlink" width="32" height="32" viewBox="0 0 32 32">
  <defs>
    <clipPath id="clip-water_purifier">
      <rect width="32" height="32"/>
    </clipPath>
  </defs>
  <g id="water_purifier" data-name="water purifier" clip-path="url(#clip-water_purifier)">
    <rect width="32" height="32" fill="#fff"/>
    <g id="Group_36228" data-name="Group 36228">
      <rect id="Rectangle_4360" data-name="Rectangle 4360" width="32" height="32" fill="none"/>
      <g id="noun_water_purifier_3099880" data-name="noun_water purifier_3099880" transform="translate(-98.349 -83.833)">
        <g id="Group_35736" data-name="Group 35736" transform="translate(101.349 86.833)">
          <g id="Group_35725" data-name="Group 35725" transform="translate(0 0)">
            <g id="Group_35724" data-name="Group 35724">
              <path id="Path_40969" data-name="Path 40969" d="M102.474,87.766h21.662c.212,0,.427.006.639,0h.009c.013,0,.427.018.044,0-.1-.006.016.009.038.015-.095-.028.013.009.035.021-.082-.046.032.031.054.058-.07-.086,0,0-.006,0a.336.336,0,0,0,.019.034c-.022-.049-.022-.049-.006,0,0,.012.006.028.009.04-.006-.055-.009-.055-.006,0,.019-.193,0,.031,0,.043V88c0,.067-.009.135-.013.2-.066.955-.133,1.912-.2,2.867l-.351,5.048-.4,5.718q-.171,2.46-.342,4.916c-.06.878-.123,1.756-.184,2.631,0,.018-.013.171,0,.095a.766.766,0,0,1-.063.22c.038-.083-.035.049-.035.052-.054.1.044-.034-.038.052a.73.73,0,0,1-.1.095c.016-.015.06-.04-.019.012a.069.069,0,0,0-.016.009l-.247.156q-1.116.711-2.235,1.423c-.127.083-.256.162-.383.245-.032.018-.06.04-.092.058l-.022.012a0,0,0,0,0,0,0c-.028.018-.06.037-.089.052-.054.024-.063.031-.028.015a.927.927,0,0,1-.123.034c-.085.018.1,0-.054.006H107.285a1.237,1.237,0,0,1-.383-.034,1.459,1.459,0,0,1-.263-.144c-.133-.08-.263-.162-.4-.242-.405-.248-.81-.5-1.219-.746-.307-.187-.611-.376-.918-.563l-.076-.046-.044-.028c.073.049-.041-.04-.047-.043-.022-.021-.041-.043-.063-.064.025.034.025.031-.006-.012s-.047-.077-.066-.116c.041.08-.016-.049-.016-.055s-.032-.15-.019-.055a.358.358,0,0,1,0-.058c0-.058-.006-.113-.009-.171-.038-.615-.079-1.23-.117-1.845q-.19-2.955-.386-5.911-.228-3.446-.459-6.89c-.127-1.869-.253-3.739-.4-5.6-.022-.3-.044-.6-.07-.9l-.028-.358c0-.043,0-.083-.006-.125,0,.095.006-.012.013-.037-.025.092.009-.012.022-.034s.016-.021.022-.034c-.032.043-.032.043.006,0a.28.28,0,0,1,.032-.028c-.041.031-.041.034,0,0a.355.355,0,0,0,.035-.018c-.051.018-.051.021,0,0l.041-.009c-.057.009-.054.009,0,.006a.459.459,0,1,0,0-.918,1.148,1.148,0,0,0-1.076.759,1.54,1.54,0,0,0-.032.636c.025.3.047.594.07.89.063.82.12,1.643.18,2.463q.233,3.295.449,6.59.228,3.4.446,6.792l.294,4.571a1.934,1.934,0,0,0,.18.786,1.579,1.579,0,0,0,.589.609c.282.174.563.346.845.52.62.382,1.238.774,1.867,1.144a2.767,2.767,0,0,0,1.469.223h11.936a1.943,1.943,0,0,0,1.424-.5c.756-.483,1.516-.964,2.273-1.447a2.16,2.16,0,0,0,.851-.768,1.708,1.708,0,0,0,.18-.7c.019-.285.041-.572.06-.857q.138-1.955.272-3.91.195-2.776.386-5.55.2-2.836.4-5.672.147-2.093.291-4.188c.025-.355.051-.71.073-1.065,0-.064.01-.128.013-.193a1.121,1.121,0,0,0-1.13-1.141c-.671-.018-1.342,0-2.013,0h-20.3A.472.472,0,0,0,102,87.3.483.483,0,0,0,102.474,87.766Z" transform="translate(-101.349 -86.833)" fill="#3e5bf8"/>
            </g>
          </g>
          <g id="Group_35727" data-name="Group 35727" transform="translate(10.448 16.282)">
            <g id="Group_35726" data-name="Group 35726" transform="translate(0 0)">
              <path id="Path_40970" data-name="Path 40970" d="M434.147,620.777v1.753c0,.211,0,.425,0,.636,0,.018-.019.193,0,.089a1.144,1.144,0,0,1-.044.18c-.006.022-.041.107,0,.025a.78.78,0,0,1-.035.073,1.175,1.175,0,0,1-.063.1c-.013.018-.089.107-.022.037a.855.855,0,0,1-.522.318s-.133.021-.063.012-.073,0-.066,0h-.1c.013,0-.146-.015-.085-.006s-.092-.021-.079-.018l-.092-.028c-.139-.04.035.021-.041-.015-.051-.025-.095-.052-.146-.08-.009-.006-.073-.049-.019-.009a.691.691,0,0,1-.089-.076c-.029-.028-.054-.055-.082-.083-.009-.009-.051-.067-.013-.015a.81.81,0,0,1-.161-.352c-.041-.135,0,.04-.01-.043,0-.04-.006-.079-.006-.122v-.48c0-.63-.006-1.26,0-1.891v-.019c0-.027,0-.058,0-.086,0-.128-.022.08.006-.046.006-.034.016-.067.025-.1,0-.012.044-.129.025-.08s.029-.058.029-.055a1.147,1.147,0,0,1,.063-.1c.016-.021.031-.046.047-.067-.06.079.032-.031.047-.046s.051-.046.076-.07c.067-.064-.054.028.035-.028.06-.037.117-.07.181-.1.111-.055-.082.015.041-.015.041-.009.082-.024.123-.034a.816.816,0,0,1,.086-.015c-.1.015.025,0,.047,0,.047,0,.095,0,.146,0,.092,0-.029-.015.07.012.032.009.063.015.095.024.01,0,.136.049.066.018.035.015.07.034.1.052.016.009.139.089.079.043a.9.9,0,0,1,.342.7.475.475,0,0,0,.95,0,1.8,1.8,0,0,0-1.446-1.722,1.868,1.868,0,0,0-1.959.857,2.168,2.168,0,0,0-.234,1.141v1.221c0,.294,0,.587,0,.881a1.79,1.79,0,0,0,1.171,1.655,1.863,1.863,0,0,0,2.048-.517,1.926,1.926,0,0,0,.424-1.306V620.78a.477.477,0,0,0-.953,0Z" transform="translate(-431.456 -619.021)" fill="#3e5bf8"/>
            </g>
          </g>
          <g id="Group_35729" data-name="Group 35729" transform="translate(3.17 3.072)">
            <g id="Group_35728" data-name="Group 35728">
              <path id="Path_40971" data-name="Path 40971" d="M218.773,188.395c-.066.872-.133,1.741-.2,2.613q-.214,2.758-.424,5.516-.19,2.469-.38,4.935c-.028.389-.06.774-.089,1.163,0,.028,0,.055-.006.08v.006c.009-.1-.01.024-.013.04-.019.1.044-.049-.016.04-.009.012-.085.116-.019.037a1.1,1.1,0,0,1-.085.086c.073-.064-.051.028-.073.04.092-.049-.025,0-.041.012-.108.043.048.006-.019.009-.022,0-.044,0-.07,0h-5.4l.475.459v-1a2.706,2.706,0,0,0-.041-.575,1.726,1.726,0,0,0-.6-.976,1.886,1.886,0,0,0-2.219-.11,1.8,1.8,0,0,0-.785,1.536v1.123l.475-.459h-5.428c-.1,0,.044.024-.041-.009-.025-.009-.054-.015-.079-.024.086.034.016.006,0-.006s-.047-.028-.07-.043c.073.052,0,0-.013-.018s-.063-.073-.029-.031-.013-.025-.019-.037-.041-.089-.019-.037-.016-.067-.019-.083c-.016-.067,0,.07,0,0a.77.77,0,0,0-.006-.089c-.006-.067-.01-.135-.016-.2-.01-.138-.019-.275-.029-.41-.019-.263-.038-.529-.057-.792-.041-.563-.082-1.123-.123-1.686-.082-1.126-.165-2.255-.247-3.381-.146-1.961-.291-3.925-.449-5.886-.051-.624-.085-1.251-.158-1.872,0-.018.006-.092-.006,0a.74.74,0,0,1,.019-.08c.022-.083.01-.018,0,0,.016-.021.025-.046.044-.067-.063.083,0,0,.006,0a.279.279,0,0,1,.032-.028c-.038.028-.041.031-.013.015.013-.006.089-.043.035-.021s.051-.012.063-.012c-.085.018-.006,0,.022,0h14.268c.557,0,1.111.006,1.668,0h.016c.016,0,.206.009.044,0-.07,0-.013.012,0,0s.1.04,0,0a.5.5,0,0,1,.07.04c-.095-.052.07.076,0,0,.016.021.028.043.044.067.047.07.006.021,0,0,0,0,.022.125.016.058s-.01.064-.01.061a.47.47,0,0,0,.475.459.477.477,0,0,0,.475-.459,1.125,1.125,0,0,0-1.13-1.138H203.1c-.155,0-.313,0-.468,0a1.129,1.129,0,0,0-1.12.961,4.262,4.262,0,0,0,.054.918c.155,1.8.288,3.607.424,5.412q.256,3.433.5,6.871c.019.278.041.557.06.832a2.545,2.545,0,0,0,.155.924,1.305,1.305,0,0,0,1.174.713c.4.006.8,0,1.206,0h4.162a.475.475,0,0,0,.475-.459v-1.211c0-.018.019-.193,0-.089.013-.067.035-.135.051-.2,0-.015.032-.083,0,0a.768.768,0,0,1,.035-.073,1.145,1.145,0,0,1,.063-.1c.013-.018.089-.107.022-.037.041-.046.085-.086.13-.128.016-.015.089-.07.016-.018.022-.015.044-.031.07-.046a1.039,1.039,0,0,1,.184-.095c-.082.034-.013.006,0,0,.048-.012.095-.028.142-.037.025-.006.117-.012.022-.006.029,0,.057,0,.089-.006.048,0,.095,0,.146,0,.013,0,.092.015.022,0a1.166,1.166,0,0,1,.231.064c-.022-.009-.06-.034.016.009.041.021.082.046.123.067.123.067-.025-.028.035.024a.676.676,0,0,1,.085.076.646.646,0,0,1,.063.067c.089.095-.025-.058.038.052a1.6,1.6,0,0,1,.092.159c-.035-.08.019.061.019.064.013.046.025.092.035.138-.013-.067,0,.006,0,.021,0,.049,0,.049,0,.1v1.211a.475.475,0,0,0,.475.459H217.3a1.29,1.29,0,0,0,1.32-1.181c.022-.251.038-.5.057-.756q.176-2.295.354-4.589.218-2.85.44-5.7c.082-1.071.2-2.145.247-3.218,0-.015,0-.034,0-.049a.472.472,0,0,0-.943-.006Z" transform="translate(-201.498 -187.256)" fill="#3e5bf8"/>
            </g>
          </g>
          <g id="Group_35731" data-name="Group 35731" transform="translate(22.385 20.402)">
            <g id="Group_35730" data-name="Group 35730">
              <path id="Path_40972" data-name="Path 40972" d="M809.06,754.618h2.665l-.475-.459v2.206a.475.475,0,0,0,.95,0v-2.206a.475.475,0,0,0-.475-.459H809.06a.459.459,0,1,0,0,.918Z" transform="translate(-808.585 -753.7)" fill="#3e5bf8"/>
            </g>
          </g>
          <g id="Group_35733" data-name="Group 35733" transform="translate(22.448 16.011)">
            <g id="Group_35732" data-name="Group 35732">
              <path id="Path_40973" data-name="Path 40973" d="M811.06,613.309h2.6a.475.475,0,0,0,.475-.459v-2.206a.475.475,0,0,0-.95,0v2.206l.475-.459h-2.6a.459.459,0,1,0,0,.918Z" transform="translate(-810.585 -610.185)" fill="#3e5bf8"/>
            </g>
          </g>
          <g id="Group_35735" data-name="Group 35735" transform="translate(9.127 6.374)">
            <g id="Group_35734" data-name="Group 35734">
              <path id="Path_40974" data-name="Path 40974" d="M395.055,299.728c0,.058,0,.113-.006.171l-.01.107c-.006.073.013-.07,0,0a2.434,2.434,0,0,1-.089.364c-.016.052-.035.1-.054.156,0,.012-.038.092-.016.04s-.013.028-.019.037a2.849,2.849,0,0,1-.184.315c-.016.021-.117.156-.06.086-.035.043-.07.083-.108.122a2.583,2.583,0,0,1-.269.251l-.063.052c.016-.012.07-.046,0,0-.048.031-.092.061-.139.089a2.82,2.82,0,0,1-.332.171c.082-.037-.054.018-.082.031-.054.018-.108.034-.161.049s-.123.031-.187.043c-.025.006-.209.031-.111.021a3.091,3.091,0,0,1-.377.015c-.06,0-.117-.006-.177-.009-.013,0-.1-.012-.044,0s-.073-.012-.085-.015a2.671,2.671,0,0,1-.351-.089c-.054-.018-.108-.037-.158-.058.089.037-.076-.037-.095-.046a2.511,2.511,0,0,1-.3-.177l-.066-.046c.016.012.066.055,0,0-.054-.043-.1-.086-.155-.132a3.2,3.2,0,0,1-.225-.236c-.057-.067-.013-.018,0,0l-.047-.064c-.041-.055-.076-.113-.111-.168s-.054-.095-.079-.141c-.01-.018-.076-.162-.038-.076a2.732,2.732,0,0,1-.12-.352c-.016-.061-.029-.122-.041-.183,0-.012-.016-.1-.006-.043s0-.031,0-.043a2.487,2.487,0,0,1-.006-.376c0-.052.006-.107.013-.159,0-.028.006-.052.01-.079.006-.077-.022.11,0-.015.022-.11.044-.22.073-.327s.063-.214.1-.318l.057-.147c.032-.083.006-.012,0,0,.016-.037.032-.07.051-.107a5.057,5.057,0,0,1,.323-.569c.054-.086.114-.168.171-.251.032-.046.066-.089.1-.135.016-.018.032-.04.044-.058.035-.046-.051.061.006-.006.133-.156.266-.312.408-.459a8.142,8.142,0,0,1,.8-.731c.048-.04.1-.076.146-.113.073-.058.025-.018-.019.015A.461.461,0,0,1,393,296.1c.035-.024.066-.049.1-.07h-.478c.1.07-.092-.073-.019-.015s.13.1.193.153q.323.262.617.551c.13.125.256.254.377.389.06.067.12.135.18.2.032.037.063.076.095.113.016.018.032.04.047.058-.025-.031-.032-.043,0,0a6.168,6.168,0,0,1,.665,1.055c.013.024.022.049.032.07.038.079-.013-.034.006.015s.044.11.063.165a3.163,3.163,0,0,1,.1.337c.013.049.025.1.035.153.006.024.01.052.016.077,0,0,.019.119.01.055s0,.021,0,.037c0,.034.006.064.009.1a1.879,1.879,0,0,0,0,.19.475.475,0,0,0,.949,0c-.013-1.661-1.231-3.13-2.478-4.164-.139-.116-.285-.229-.43-.336a.469.469,0,0,0-.478,0,7.8,7.8,0,0,0-1.165.976,6.087,6.087,0,0,0-1.586,2.463,3.143,3.143,0,0,0,.706,3.154,3.248,3.248,0,0,0,3.244.8,3.1,3.1,0,0,0,2.19-2.9.47.47,0,0,0-.475-.459A.478.478,0,0,0,395.055,299.728Z" transform="translate(-389.716 -295.162)" fill="#3e5bf8"/>
            </g>
          </g>
        </g>
      </g>
    </g>
  </g>
</svg>
