<svg id="LG_logo__2015_" data-name="LG_logo_(2015)" xmlns="http://www.w3.org/2000/svg" width="32" height="32" viewBox="0 0 32 32">
  <path id="Path_41021" data-name="Path 41021" d="M16,32A16,16,0,1,0,0,16,16,16,0,0,0,16,32" fill="#a50034"/>
  <path id="Path_41022" data-name="Path 41022" d="M37.1,21.676V35.715h4.46V34.453H38.38V21.676Z" transform="translate(-21.739 -12.695)" fill="#fff"/>
  <path id="Path_41023" data-name="Path 41023" d="M23.6,25.494a1.92,1.92,0,1,0-1.916-1.918A1.918,1.918,0,0,0,23.6,25.494" transform="translate(-12.705 -12.683)" fill="#fff"/>
  <path id="Path_41024" data-name="Path 41024" d="M20.334,6.278c-.167-.008-.485-.019-.637-.019a13.4,13.4,0,1,0,13.389,13.4v-.6H23.521V20.3H31.81c0,.027,0,.158-.006.192a12.135,12.135,0,0,1-20.694,7.756A12.144,12.144,0,0,1,19.7,7.517c.14,0,.48,0,.637.008Z" transform="translate(-3.692 -3.666)" fill="#fff"/>
</svg>
