<svg xmlns="http://www.w3.org/2000/svg" xmlns:xlink="http://www.w3.org/1999/xlink" width="32" height="32" viewBox="0 0 32 32">
  <defs>
    <clipPath id="clip-Logout">
      <rect width="32" height="32"/>
    </clipPath>
  </defs>
  <g id="Logout" clip-path="url(#clip-Logout)">
    <rect width="32" height="32" fill="#fff"/>
    <rect id="Rectangle_4360" data-name="Rectangle 4360" width="32" height="32" fill="none"/>
    <g id="Group_36224" data-name="Group 36224" transform="translate(14341 1020)">
      <rect id="Rectangle_1714" data-name="Rectangle 1714" width="32" height="32" transform="translate(-14341 -1020)" fill="none"/>
      <g id="noun_logout_1312069" transform="translate(-14335.667 -1014.667)">
        <path id="Path_35284" data-name="Path 35284" d="M87.138,25.81V10.8L79.523,7.524V22.536ZM83.381,7.524,87.74,9.4a1.524,1.524,0,0,1,.922,1.4V22.762h2.285A.762.762,0,0,0,91.708,22V19.714h1.523V22a2.285,2.285,0,0,1-2.285,2.286H88.661V25.81a1.523,1.523,0,0,1-2.124,1.4l-7.615-3.273a1.524,1.524,0,0,1-.922-1.4V7.524A1.523,1.523,0,0,1,79.523,6H90.946a2.285,2.285,0,0,1,2.285,2.286v2.286H91.708V8.286a.762.762,0,0,0-.762-.762Zm13.037,6.863-1.746-1.747,1.077-1.078,3.585,3.586-3.585,3.586-1.077-1.078,1.746-1.747H91.708V14.386Z" transform="translate(-78 -6)" fill="#3a78f9"/>
      </g>
    </g>
  </g>
</svg>
