<svg xmlns="http://www.w3.org/2000/svg" width="32" height="32" viewBox="0 0 32 32">
  <g id="Group_36249" data-name="Group 36249" transform="translate(20873 -4489)">
    <rect id="Rectangle_4246" data-name="Rectangle 4246" width="32" height="32" transform="translate(-20873 4489)" fill="none"/>
    <g id="product" transform="translate(-20899.5 4467.362)">
      <path id="Path_41004" data-name="Path 41004" d="M53.672,33.234l-5.645-2.186a5.563,5.563,0,1,0-10.5,0l-5.645,2.186a.607.607,0,0,0-.387.566V46.894a.607.607,0,0,0,.388.566L42.559,51.6a.61.61,0,0,0,.22.041A.6.6,0,0,0,43,51.593l0,0L53.672,47.46a.607.607,0,0,0,.387-.566V33.8a.607.607,0,0,0-.387-.566Zm-1.9.566-1.97.764-3.265-1.256a5.592,5.592,0,0,0,.963-1.163Zm-6.43.349,2.776,1.068-1.568.607L43.675,34.7a5.526,5.526,0,0,0,1.667-.552Zm1.89,2.714,2.04-.791V38.6l-.341-.222a.608.608,0,0,0-.774.092l-.925.981Zm-4.452-12a4.349,4.349,0,1,1-4.349,4.349,4.349,4.349,0,0,1,4.349-4.349Zm-4.373,7.774-.813-.318.465-.18a5.574,5.574,0,0,0,.347.5Zm-2.488.332,8.955,3.5-2.094.812L33.787,33.8Zm-3.2,13.5V34.687l9.457,3.666v11.79Zm10.672,3.666V38.353l2.63-1.02v3.651a.607.607,0,0,0,.383.564.6.6,0,0,0,.224.043.607.607,0,0,0,.442-.191l1.626-1.726.855.555a.607.607,0,0,0,.937-.509V35.6l2.36-.914v11.79Z" transform="translate(0 0)" fill="#04144f"/>
      <path id="Path_41005" data-name="Path 41005" d="M57.531,37.841a.607.607,0,0,0,.8-.012l2.945-2.647a.607.607,0,1,0-.812-.9l-2.551,2.294-1.162-.982a.607.607,0,1,0-.784.928Z" transform="translate(-15.834 -6.838)" fill="#04144f"/>
    </g>
  </g>
</svg>
