<svg xmlns="http://www.w3.org/2000/svg" width="32" height="32" viewBox="0 0 32 32">
  <g id="Group_36254" data-name="Group 36254" transform="translate(20887 -4406)">
    <rect id="Rectangle_4246" data-name="Rectangle 4246" width="32" height="32" transform="translate(-20887 4406)" fill="none"/>
    <g id="profile" transform="translate(-20885 4369)">
      <path id="Path_41006" data-name="Path 41006" d="M238.2,377H233.82a.82.82,0,1,0,0,1.641H238.2a.82.82,0,0,0,0-1.641Z" transform="translate(-220.258 -317.625)" fill="#959cb5"/>
      <path id="Path_41007" data-name="Path 41007" d="M233.82,314.641h3.063a.82.82,0,1,0,0-1.641H233.82a.82.82,0,1,0,0,1.641Z" transform="translate(-220.258 -257.125)" fill="#959cb5"/>
      <path id="Path_41008" data-name="Path 41008" d="M28,47.508a6.508,6.508,0,0,0-12.656-2.133H2.461A2.464,2.464,0,0,0,0,47.836V62.055a2.464,2.464,0,0,0,2.461,2.461h20.4a2.464,2.464,0,0,0,2.461-2.461V52.767A6.5,6.5,0,0,0,28,47.508Zm-6.508-4.867a4.867,4.867,0,1,1-4.867,4.867A4.873,4.873,0,0,1,21.492,42.641ZM23.68,62.055a.821.821,0,0,1-.82.82H2.461a.821.821,0,0,1-.82-.82V47.836a.821.821,0,0,1,.82-.82H15q-.018.244-.019.492a6.508,6.508,0,0,0,8.7,6.129Z" transform="translate(0 0)" fill="#959cb5"/>
      <path id="Path_41009" data-name="Path 41009" d="M346.958,124.812a.82.82,0,0,0,.639.448.834.834,0,0,0,.095.005.82.82,0,0,0,.63-.3l2.187-2.625a.82.82,0,1,0-1.26-1.05l-1.385,1.661-.314-.628a.82.82,0,0,0-1.467.734Z" transform="translate(-327.074 -75.625)" fill="#959cb5"/>
      <path id="Path_41010" data-name="Path 41010" d="M70.583,214.121a3.008,3.008,0,1,0-4.275,0A3.44,3.44,0,0,0,65,216.82v2.187a.82.82,0,0,0,.82.82h5.25a.82.82,0,0,0,.82-.82V216.82A3.44,3.44,0,0,0,70.583,214.121Zm-3.5-2.113a1.367,1.367,0,1,1,1.367,1.367A1.369,1.369,0,0,1,67.078,212.008Zm3.172,6.18H66.641V216.82a1.8,1.8,0,1,1,3.609,0Z" transform="translate(-61.445 -158.812)" fill="#959cb5"/>
    </g>
  </g>
</svg>
