<svg xmlns="http://www.w3.org/2000/svg" xmlns:xlink="http://www.w3.org/1999/xlink" width="32" height="32" viewBox="0 0 32 32">
  <defs>
    <clipPath id="clip-Star-02">
      <rect width="32" height="32"/>
    </clipPath>
  </defs>
  <g id="Star-02" clip-path="url(#clip-Star-02)">
    <rect width="32" height="32" fill="#fff"/>
    <g id="Group_36245" data-name="Group 36245">
      <g id="Group_36223" data-name="Group 36223" transform="translate(-152 -842)">
        <rect id="Rectangle_3542" data-name="Rectangle 3542" width="32" height="32" transform="translate(152 842)" fill="rgba(0,0,0,0)"/>
        <path id="Path_36778" data-name="Path 36778" d="M24.468,30.685a1.978,1.978,0,0,1-1.107-.34L16.7,25.869a.2.2,0,0,0-.223,0l-6.66,4.475A1.983,1.983,0,0,1,6.8,28.188l2.187-7.733a.206.206,0,0,0-.071-.215l-6.3-4.968a1.988,1.988,0,0,1,1.152-3.58l8.035-.3a.205.205,0,0,0,.179-.134l2.767-7.546a1.98,1.98,0,0,1,3.723,0l2.767,7.546a.205.205,0,0,0,.179.134l8.035.3a1.988,1.988,0,0,1,1.152,3.58l-6.3,4.968a.2.2,0,0,0-.071.215l2.187,7.734a1.995,1.995,0,0,1-1.946,2.5Zm-7.874-6.642a1.969,1.969,0,0,1,1.1.376l6.66,4.475a.2.2,0,0,0,.3-.224l-2.187-7.733a1.981,1.981,0,0,1,.687-2.1l6.3-4.968a.2.2,0,0,0-.116-.358l-8.035-.3A1.982,1.982,0,0,1,19.522,11.9L16.755,4.352a.2.2,0,0,0-.375,0l-2.741,7.537a1.982,1.982,0,0,1-1.785,1.307l-8.035.3a.2.2,0,0,0-.116.358l6.312,4.977a1.99,1.99,0,0,1,.687,2.1L8.524,28.671a.188.188,0,0,0,.071.215.178.178,0,0,0,.232,0l6.66-4.475a1.978,1.978,0,0,1,1.1-.331Z" transform="translate(151.717 841.626)" fill="#949dbd"/>
      </g>
    </g>
  </g>
</svg>
