<svg xmlns="http://www.w3.org/2000/svg" width="32" height="32" viewBox="0 0 32 32">
  <g id="Group_36250" data-name="Group 36250" transform="translate(20917 -4481)">
    <rect id="Rectangle_4246" data-name="Rectangle 4246" width="32" height="32" transform="translate(-20917 4481)" fill="none"/>
    <g id="doctor" transform="translate(-20926 4472)">
      <g id="Group_35849" data-name="Group 35849" transform="translate(11 11)">
        <path id="Path_41000" data-name="Path 41000" d="M338.481,257.792a1.168,1.168,0,1,0-1.063,2.08,11.752,11.752,0,0,1,6.417,10.531,1.166,1.166,0,0,0,2.331,0A14.083,14.083,0,0,0,338.481,257.792Z" transform="translate(-318.166 -243.569)" fill="#04144f"/>
        <path id="Path_41001" data-name="Path 41001" d="M18.56,258.825A14.114,14.114,0,0,0,11,271.374a1.166,1.166,0,1,0,2.331,0,11.786,11.786,0,0,1,6.309-10.48,1.167,1.167,0,0,0-1.08-2.069Z" transform="translate(-11 -244.54)" fill="#04144f"/>
        <path id="Path_41002" data-name="Path 41002" d="M134.654,25.834a7.417,7.417,0,1,0-7.354-7.417A7.392,7.392,0,0,0,134.654,25.834Zm0-12.5a5.086,5.086,0,1,1-5.023,5.086A5.058,5.058,0,0,1,134.654,13.331Z" transform="translate(-120.654 -11)" fill="#04144f"/>
        <path id="Path_41003" data-name="Path 41003" d="M195.738,284.36a1.165,1.165,0,0,0-1.149-.96h-2.617a1.165,1.165,0,0,0-1.149.96l-1.326,7.4a1.169,1.169,0,0,0,.629,1.251l2.68,1.326a.984.984,0,0,0,1.051-.006l2.583-1.326a1.165,1.165,0,0,0,.617-1.246Zm-2.417,7.623-1.366-.674,1-5.577h.663l1,5.589Z" transform="translate(-179.281 -267.834)" fill="#04144f"/>
      </g>
    </g>
  </g>
</svg>
