<svg xmlns="http://www.w3.org/2000/svg" xmlns:xlink="http://www.w3.org/1999/xlink" width="32" height="32" viewBox="0 0 32 32">
  <defs>
    <clipPath id="clip-Verify">
      <rect width="32" height="32"/>
    </clipPath>
  </defs>
  <g id="Verify" clip-path="url(#clip-Verify)">
    <rect width="32" height="32" fill="#fff"/>
    <rect id="Rectangle_4360" data-name="Rectangle 4360" width="32" height="32" fill="none"/>
    <path id="shapes-and-symbols" d="M18.747,8.875a1.015,1.015,0,0,1,0,1.436l-6.813,6.814a1.016,1.016,0,0,1-1.436,0L7.253,13.881A1.016,1.016,0,1,1,8.69,12.445l2.525,2.525,6.1-6.1A1.016,1.016,0,0,1,18.747,8.875ZM26,13A13,13,0,1,1,13,0,12.993,12.993,0,0,1,26,13Zm-2.031,0A10.969,10.969,0,1,0,13,23.969,10.963,10.963,0,0,0,23.969,13Zm0,0" transform="translate(3 3)" fill="#4ec71c"/>
  </g>
</svg>
